<?xml version="1.0" encoding="utf-8" ?><svg xmlns="http://www.w3.org/2000/svg" xmlns:xlink="http://www.w3.org/1999/xlink" width="512" height="512" viewBox="0 0 512 512"><path fill="#211F16" transform="scale(0.5 0.5)" d="M675.838 209.71C698.229 207.29 725.657 214.917 744.348 227.498C768.819 220.929 804.841 222.023 829.505 226.832C836.321 228.161 844.274 231.079 850.641 232.113C854.573 231.028 861.064 227.478 864.713 226.238C926.287 205.298 986.941 246.278 951.823 312.902C961.458 332.17 962.49 342.819 956.827 363.102C993.821 419.636 952.211 478.799 902.655 509.051C889.632 517.002 874.946 523.07 860.821 528.681C861.796 530.152 862.727 531.652 863.612 533.179C870.251 544.748 878.253 564.297 878.01 577.68C877.911 583.16 876.951 587.367 875.535 592.608C897.623 637.534 910.45 706.844 913.49 756.834C913.846 757.163 914.198 757.494 914.549 757.828C924.75 767.577 949.281 798.2 932.667 811.598C916.293 824.804 880.153 822.469 859.996 823.065C845.422 823.496 830.694 823.364 816.116 823.143C802.461 822.929 768.509 820.512 756.477 815.809C752.738 814.349 749.369 812.078 746.613 809.159C736.123 797.921 738.286 773.582 738.321 759.056C738.284 744.066 738.341 729.076 738.494 714.087C718.438 725.051 700.527 733.864 677.842 738.248C668.535 740.046 659.398 741.162 650.067 742.683C657.26 756.556 661.981 769.175 662.599 785.029C663.505 808.312 638.719 806.448 622.763 806.703C611.826 806.888 600.887 806.98 589.948 806.978C591.201 838.045 562.824 838.332 539.173 841.326C523.871 843.263 507.748 842.827 492.304 842.819C477.99 842.919 463.675 842.702 449.37 842.167C427.447 841.188 390.601 839.66 375.333 822.435C366.973 813.004 367.895 800.617 368.423 788.875C368.566 779.04 370.649 760.811 372.584 751.233C336.833 744.963 302.212 733.415 269.856 716.968C261.698 745.876 263.416 749.327 275.931 775.02C280.221 783.829 283.503 793.588 279.969 803.284C277.899 808.961 273.753 812.533 268.372 815.028C241.429 827.516 153.872 822.804 125.894 812.453C118.07 809.559 110.56 804.119 107.106 796.311C97.1762 773.872 113.437 716.881 122.023 693.832C117.412 694.729 112.734 695.235 108.038 695.342C81.5876 695.72 48.5134 681.335 39.3434 654.425C33.5391 637.393 52.695 637.096 64.7212 632.946C83.7979 626.361 97.3503 615.893 111.742 602.12C93.4817 590.417 44.8233 554.748 45.4843 531.184C45.5624 528.203 46.4712 525.302 48.1083 522.81C55.0007 512.292 86.248 491.894 97.7035 480.904C106.067 440.637 121.482 402.165 143.237 367.263C189.692 293.782 263.06 241.4 347.644 221.324C413.658 206.055 489.883 212.995 553.053 237.403C565.751 242.31 581.25 249.277 592.797 256.488C593.095 256.113 593.396 255.741 593.7 255.372C616.356 227.915 639.868 213.295 675.838 209.71Z"/><path fill="#56F5DF" transform="scale(0.5 0.5)" d="M421.13 232.535C426.529 232.923 431.821 233.16 437.201 233.504L443.395 233.549C450.111 234.367 456.685 234.879 463.357 235.639C471.654 236.743 479.001 237.998 487.238 239.537C493.038 239.453 516.998 245.835 522.552 248.133C528.973 250.269 536.793 252.755 542.931 255.387C545.569 256.472 551.566 258.627 553.771 259.708L559.416 262.117C567.082 265.163 574.66 269.188 581.798 273.336C580.585 275.324 578.42 279.549 576.479 280.378C570.727 284.2 563.472 284.506 557.227 289.268C550.663 294.272 545.867 303.245 539.729 307.484L538.185 310.828C525.538 332.179 519.512 352.731 523.552 377.87C527.001 399.328 536.561 413.213 555.302 424.201C555.772 424.478 556.244 424.751 556.718 425.022C557.926 431.201 558.765 435.17 560.782 441.219C561.564 443.566 564.588 451.361 565.006 453.228C567.173 457.781 569.598 462.207 572.269 466.484C578.39 474.658 581.244 479.484 588.505 487.223C566.391 499.452 548.886 512.607 528.326 527.001C497.485 548.594 464.769 569.001 431.238 586.148C425.303 589.183 415.967 594.037 410.062 596.487C405.349 598.305 400.37 600.331 395.885 602.668C351.482 617.914 316.522 624.892 268.94 622.694C261.88 622.368 248.062 622.342 241.588 621.379C238.171 620.515 230.395 619.701 226.854 619.431C222.882 619.632 211.374 617.448 207.035 616.511C186.294 612.031 148.931 602.144 131.379 590.123C127.385 587.859 123.425 585.534 119.503 583.148C117.87 582.659 111.241 578.084 109.606 576.922C92.5804 564.818 74.9375 549.815 64.9639 531.226C72.019 525.212 79.1686 519.857 86.4809 514.208C91.9727 509.966 97.0153 505.374 102.765 501.402C104.812 499.694 110.252 493.75 112.755 491.352C117.593 480.964 120.922 465.168 124.478 453.811C131.434 431.994 140.8 411.02 152.403 391.278C155.107 386.63 158.104 379.692 162.368 376.649C162.923 376.01 167.454 368.533 168.142 367.392C171.581 361.688 174.708 357.121 178.727 351.818C182.234 346.048 198.264 327.877 203.613 324.022C209.467 317.299 214.032 312.617 221.506 307.796C227.19 301.54 242.883 289.668 250.518 285.379C258.107 279.514 275.161 269.836 283.807 266.045C290.4 259.91 326.601 247.028 336.829 244.147C342.729 242.46 348.742 241.196 354.821 240.365C358.05 239.264 359.752 238.878 363.099 238.196C369.059 236.669 390.915 233.746 396.812 234.147C402.327 232.953 415.272 232.731 421.13 232.535Z"/><path fill="#684A2A" transform="scale(0.5 0.5)" d="M421.13 232.535C426.529 232.923 431.821 233.16 437.201 233.504L443.395 233.549C450.111 234.367 456.685 234.879 463.357 235.639C471.654 236.743 479.001 237.998 487.238 239.537C493.038 239.453 516.998 245.835 522.552 248.133C528.973 250.269 536.793 252.755 542.931 255.387C545.569 256.472 551.566 258.627 553.771 259.708L559.416 262.117C567.082 265.163 574.66 269.188 581.798 273.336C580.585 275.324 578.42 279.549 576.479 280.378C573.104 280.188 564.302 282.485 560.816 283.46C529.085 292.336 502.773 309.278 476.572 328.608C444.164 304.541 414.45 285.594 375.614 273.551C384.079 263.193 397.394 252.538 407.586 243.817C412.044 240.003 416.808 236.656 421.13 232.535Z"/><path fill="#56F5DF" transform="scale(0.5 0.5)" d="M463.357 235.639C471.654 236.743 479.001 237.998 487.238 239.537C493.038 239.453 516.998 245.835 522.552 248.133C528.973 250.269 536.793 252.755 542.931 255.387C533.335 260.736 520.5 264.47 510.715 269.207C498.75 275 488.451 280.789 476.094 286.117C468.181 283.495 460.764 277.95 453.221 274.229C447.696 271.503 441.583 269.308 436.398 266.083C434.673 265.01 433.483 263.856 433.058 261.857C434.52 254.141 456.398 240.74 463.357 235.639Z"/><path fill="#684A2A" transform="scale(0.5 0.5)" d="M487.238 239.537C493.038 239.453 516.998 245.835 522.552 248.133C507.389 254.239 491.695 262.209 477.063 269.653C470.212 265.966 463.264 262.463 456.226 259.148C465.995 252.162 478.864 245.942 487.238 239.537Z"/><path fill="#684A2A" transform="scale(0.5 0.5)" d="M443.395 233.549C450.111 234.367 456.685 234.879 463.357 235.639C456.398 240.74 434.52 254.141 433.058 261.857C433.483 263.856 434.673 265.01 436.398 266.083C441.583 269.308 447.696 271.503 453.221 274.229C460.764 277.95 468.181 283.495 476.094 286.117C488.451 280.789 498.75 275 510.715 269.207C520.5 264.47 533.335 260.736 542.931 255.387C545.569 256.472 551.566 258.627 553.771 259.708C535.343 269.86 516.421 277.905 497.654 287.338C488.337 292.022 479.191 296.633 469.611 300.777C461.376 296.871 450.332 289.308 442.26 284.258C434.477 279.389 418.269 271.031 412.093 265.238C417.382 253.084 441.328 240.405 443.395 233.549Z"/><path fill="#56F5DF" transform="scale(0.5 0.5)" d="M437.201 233.504L443.395 233.549C441.328 240.405 417.382 253.084 412.093 265.238C418.269 271.031 434.477 279.389 442.26 284.258C450.332 289.308 461.376 296.871 469.611 300.777C479.191 296.633 488.337 292.022 497.654 287.338C516.421 277.905 535.343 269.86 553.771 259.708L559.416 262.117C538.313 273.744 516.016 283.93 494.373 294.542C486.511 298.397 478.032 302.509 469.837 305.508C460.608 302.005 450.18 294.77 441.668 289.56C435.072 285.523 407.746 272.07 407.641 264.629C407.531 256.766 430.965 238.769 437.201 233.504Z"/><path fill="#684A2A" transform="scale(0.5 0.5)" d="M572.269 466.484C578.39 474.658 581.244 479.484 588.505 487.223C566.391 499.452 548.886 512.607 528.326 527.001C497.485 548.594 464.769 569.001 431.238 586.148C425.303 589.183 415.967 594.037 410.062 596.487C402.8 577.654 394.165 559.53 386.788 540.117C420.766 520.635 443.637 505.725 473.336 479.482C484.035 484.16 493.842 488.543 504.164 494.03C511.931 498.16 519.619 502.883 527.487 506.668C545.386 495.88 558.778 482.295 572.269 466.484Z"/><path fill="#56F5DF" transform="scale(0.5 0.5)" d="M467.254 499.499C468.34 499.47 470.488 499.457 471.449 499.616C478.452 500.771 502.187 514.182 505.754 519.597C507.028 521.512 507.43 523.877 506.862 526.106C504.394 535.627 456.068 562.822 445.265 569.075C441.814 571.033 433.573 575.808 429.849 574.851C422.509 572.965 417.663 559.959 414.646 553.65C413.635 551.616 410.717 543.33 411.949 541.355C418.089 531.512 436.878 521.087 445.813 514.372C453.92 508.279 460.104 503.451 467.254 499.499Z"/><path fill="#684A2A" transform="scale(0.5 0.5)" d="M469.237 503.961C474.04 504.172 486.976 512.138 491.799 514.96C495.88 517.347 502.209 520.027 501.865 525.288C497.959 533.21 454.283 558.318 444.197 564.232C433.867 570.393 429.56 573.338 423.198 560.92C419.943 554.565 417.993 549.858 416.21 542.898C421.271 536.618 460.41 509.408 469.237 503.961Z"/><path fill="#56F5DF" transform="scale(0.5 0.5)" d="M466.673 518.398C469.373 518.296 472.959 518.661 474.325 521.403C476.619 526.011 472.164 530.645 468.853 533.288C458.28 541.727 446.63 548.698 434.986 555.531C428.565 555.417 424.108 549.776 429.369 544.704C432.516 541.672 437.866 538.363 441.569 535.754C449.853 529.848 458.221 524.062 466.673 518.398Z"/><path fill="#684A2A" transform="scale(0.5 0.5)" d="M482.705 342.967C498.736 329.909 520.873 315.851 539.729 307.484L538.185 310.828C525.538 332.179 519.512 352.731 523.552 377.87C527.001 399.328 536.561 413.213 555.302 424.201C555.772 424.478 556.244 424.751 556.718 425.022C557.926 431.201 558.765 435.17 560.782 441.219C561.564 443.566 564.588 451.361 565.006 453.228C553.713 467.523 540.136 478.702 525.777 489.735C509.676 480.495 495.16 472.938 478.094 465.717C476.218 456.418 476.016 444.352 475.832 434.817C475.319 414.01 476.141 393.191 478.293 372.489C479.371 362.879 481.191 352.591 482.705 342.967Z"/><path fill="#56F5DF" transform="scale(0.5 0.5)" d="M503.998 347.477C508.211 347.407 512.695 347.982 515.325 351.721C516.467 353.369 516.905 355.405 516.54 357.377C515.797 361.603 513.038 363.535 509.877 365.863C509.646 383.988 509.876 402.117 510.566 420.231C517.5 425.469 526.938 430.595 534.57 435.46C545.303 429.676 553.896 434.365 549.989 446.847C541.425 455.749 532.855 451.292 531.941 439.475C524.694 434.924 512.771 429.329 506.956 423.823C503.39 414.432 504.681 378.488 504.42 365.987C495.062 359.681 495.679 354.17 503.998 347.477Z"/><path fill="#684A2A" transform="scale(0.5 0.5)" d="M373.518 546.063C376.94 554.485 379.9 563.258 383.174 571.771C387.231 582.143 391.469 592.444 395.885 602.668C351.482 617.914 316.522 624.892 268.94 622.694C261.88 622.368 248.062 622.342 241.588 621.379C244.106 616.859 247.371 605.827 248.994 600.586C253.037 587.243 256.994 573.874 260.864 560.48C301.001 560.965 334.684 557.326 373.518 546.063Z"/><path fill="#56F5DF" transform="scale(0.5 0.5)" d="M355.932 564.681C357.762 564.424 360.467 564.508 362.39 564.495C363.249 565.006 364.075 565.514 364.849 566.15C370.45 570.762 376.013 585.82 376.411 593.11C376.556 595.777 375.813 598.297 373.898 600.211C364.548 609.554 320.396 614.157 306.626 615.144C300.72 615.568 294.793 615.554 288.875 615.58C282.967 615.642 269.027 616.75 268.402 608.518C267.754 599.967 269.864 584.866 274.535 577.587C277.173 573.477 291.634 573.112 296.497 572.767C316.548 571.344 336.139 567.967 355.932 564.681Z"/><path fill="#684A2A" transform="scale(0.5 0.5)" d="M356.182 569.67C358.289 569.31 360.865 569.004 362.565 570.6C367.78 575.47 369.672 583.756 371.169 590.496C373.101 599.194 362.413 600.915 356.091 602.588C334.041 608.423 311.506 610.493 288.76 611.03C285.349 611.084 272.667 612.2 273.092 606.603C273.69 598.705 274.008 587.289 278.533 580.67C279.224 579.659 283.828 578.863 285.256 578.565C309.275 577.356 332.496 573.467 356.182 569.67Z"/><path fill="#56F5DF" transform="scale(0.5 0.5)" d="M341.587 581.678C350.437 580.593 355.055 592.868 337.53 595.671C322.13 598.135 307.726 600.404 291.875 600.543C288.411 600.482 284.405 598.922 283.995 595.414C283.033 587.197 292.171 587.363 297.514 586.971C301.758 586.659 304.86 586.347 308.445 585.984C319.533 584.882 330.585 583.446 341.587 581.678Z"/><path fill="#684A2A" transform="scale(0.5 0.5)" d="M162.046 542.276C182.575 551.428 222.41 559.549 244.864 560.655C241.638 574.077 237.631 585.6 233.208 598.677C231.32 604.259 227.988 613.733 226.854 619.431C222.882 619.632 211.374 617.448 207.035 616.511C186.294 612.031 148.931 602.144 131.379 590.123C142.125 574.923 152.236 558.173 162.046 542.276Z"/><path fill="#56F5DF" transform="scale(0.5 0.5)" d="M167.764 559.031C176.941 559.047 187.922 562.481 197.04 564.421C217.754 568.828 233.396 567.696 222.619 594.233C219.729 601.348 217.657 606.701 209.681 608.976C202.379 608.202 195.148 606.861 188.053 604.965C179.896 602.861 158.026 597.073 152.375 590.373C149.137 586.534 154.117 576.601 156.151 572.49C159.22 566.289 161.009 562.319 167.764 559.031Z"/><path fill="#684A2A" transform="scale(0.5 0.5)" d="M168.499 563.454C183.69 565.749 199.549 570.459 214.862 573.327C226.886 575.579 219.045 588.017 217.074 595.121C215.776 599.799 213.614 602.365 209.296 604.583C191.562 601.345 170.995 596.505 155.371 587.443C157.132 579.338 162.533 569.265 168.499 563.454Z"/><path fill="#56F5DF" transform="scale(0.5 0.5)" d="M171.335 574.409C176.628 574.881 204.842 579.925 207.654 582.611C208.777 583.684 209.458 584.985 209.48 586.559C209.519 589.395 207.414 591.573 205.605 593.472C198.281 593.743 176.806 588.188 169.591 585.54C166.248 579.829 167 578.842 171.335 574.409Z"/><path fill="#684A2A" transform="scale(0.5 0.5)" d="M363.099 238.196C369.059 236.669 390.915 233.746 396.812 234.147C381.941 245.53 368.379 258.53 356.376 272.907C350.188 280.306 344.394 288.309 338.349 295.504C295.981 295.633 262.383 301.083 221.506 307.796C227.19 301.54 242.883 289.668 250.518 285.379C258.107 279.514 275.161 269.836 283.807 266.045C290.4 259.91 326.601 247.028 336.829 244.147C342.729 242.46 348.742 241.196 354.821 240.365C358.05 239.264 359.752 238.878 363.099 238.196Z"/><path fill="#56F5DF" transform="scale(0.5 0.5)" d="M363.099 238.196L363.247 239.317C357.983 245.82 350.811 250.211 345.299 257.933C345.606 264.158 346.073 266.652 340.518 270.443C338.32 270.664 335.917 270.853 333.755 271.211C331.284 273.415 329.662 275.03 327.395 277.449C310.504 278.378 293.641 279.779 276.828 281.652C271.421 282.301 254.612 285.657 250.518 285.379C258.107 279.514 275.161 269.836 283.807 266.045C290.4 259.91 326.601 247.028 336.829 244.147C342.729 242.46 348.742 241.196 354.821 240.365C358.05 239.264 359.752 238.878 363.099 238.196Z"/><path fill="#684A2A" transform="scale(0.5 0.5)" d="M283.807 266.045C290.4 259.91 326.601 247.028 336.829 244.147C342.729 242.46 348.742 241.196 354.821 240.365C350.714 244.246 344.852 250.164 340.684 253.623C331.456 250.669 327.535 254.148 326.738 263.501C312.523 263.522 298.025 265.616 283.807 266.045Z"/><path fill="#684A2A" transform="scale(0.5 0.5)" d="M64.9639 531.226C72.019 525.212 79.1686 519.857 86.4809 514.208C91.9727 509.966 97.0153 505.374 102.765 501.402C115.992 516.326 131.905 528.632 149.677 537.679C143.058 547.358 136.491 557.073 129.976 566.822C126.638 571.898 122.854 578.37 119.503 583.148C117.87 582.659 111.241 578.084 109.606 576.922C92.5804 564.818 74.9375 549.815 64.9639 531.226Z"/><path fill="#56F5DF" transform="scale(0.5 0.5)" d="M97.3937 515.046C98.0499 515.173 98.6979 515.339 99.3342 515.543C107.987 518.238 117.374 529.434 124.969 534.531C139.323 544.164 117.869 562.654 108.235 566.817C98.0977 565.78 78.7693 545.61 75.0511 536.251C71.3015 526.813 90.4436 517.228 97.3937 515.046Z"/><path fill="#684A2A" transform="scale(0.5 0.5)" d="M97.0189 519.389C102.271 521.407 121.804 537.698 125.376 542.133C122.376 550.616 115.185 557.367 107.83 562.221C97.91 557.663 84.8324 544.04 79.1141 534.983C82.7087 527.055 89.7681 523.529 97.0189 519.389Z"/><path fill="#56F5DF" transform="scale(0.5 0.5)" d="M92.6967 528.442C95.4382 528.309 96.5125 528.35 98.844 529.996C102.787 532.78 114.143 540.854 115.148 545.48C114.77 547.682 113.619 548.814 112.253 550.63C104.965 554.232 92.5834 541.282 90.6619 534.874C89.9552 532.517 91.4277 530.274 92.6967 528.442Z"/><path fill="#684A2A" transform="scale(0.5 0.5)" d="M112.755 491.352C117.593 480.964 120.922 465.168 124.478 453.811C131.434 431.994 140.8 411.02 152.403 391.278C155.107 386.63 158.104 379.692 162.368 376.649C159.044 386.24 154.156 395.311 150.328 404.717C146.299 414.616 130.875 456.321 134.705 465.052C135.353 466.531 136.479 467.712 138.031 468.255C139.759 468.86 141.576 468.504 143.093 467.552C144.397 466.733 145.214 465.46 145.848 464.088C148.15 459.105 149.263 453.215 150.682 447.913C152.849 439.73 155.079 431.564 157.374 423.415C163.796 424.996 168.84 426.299 175.123 428.338C165.263 455.377 156.935 494.374 153.568 522.958C137.257 513.649 126.548 503.945 112.755 491.352Z"/><path fill="#684A2A" transform="scale(0.5 0.5)" d="M203.613 324.022C210.616 324.011 217.073 322.713 223.92 321.443C212.489 340.989 202.773 358.096 193.65 379.053C187.113 394.07 182.414 408.155 176.621 423.209C170.332 421.482 165.459 420.313 159.063 418.946C163.161 405.489 168.147 392.318 173.988 379.521C177.393 372.035 181.482 364.848 184.44 357.219C185.088 355.547 184.77 355.681 184.041 354.065C182.369 352.49 181.276 352.479 178.957 351.88L178.727 351.818C182.234 346.048 198.264 327.877 203.613 324.022Z"/><path fill="#684A2A" transform="scale(0.5 0.5)" d="M364.584 284.833C368.435 285.614 378.54 289.723 382.498 291.345C413.181 303.91 441.889 320.838 467.736 341.605C460.576 383.617 458.515 424.163 464.357 466.545C437.845 491.574 396.28 522.707 361.529 533.951C361.511 511.262 361.624 488.574 361.866 465.887C374.694 462.772 395.332 457.791 407.36 451.728C410.78 450.004 410.545 435.761 410.761 431.134L412.032 406.125C412.498 398.002 415.719 373.144 412.24 368.819C408.615 364.312 371.991 366.336 365.663 366.533C367.381 358.253 370.615 348.851 371.289 340.426C371.179 335.397 368.022 333.555 363.658 333.06C356.358 332.232 349.376 332.445 342.144 332.434L308.438 332.397C297.396 331.854 286.752 331.909 275.739 332.588C260.734 333.512 260.566 344.42 257.693 356.217C255.627 364.841 253.445 373.436 251.146 382.001C245.483 381.459 234.123 379.643 229.554 383.429C222.227 389.5 214.664 444.627 212.318 457.489C201.802 457.216 188.197 458.006 197.275 472.073C203.036 473.512 205.419 473.448 211.358 473.469C208.4 495.256 207.596 518.319 207.922 540.283C192.842 537.015 182.873 534.438 168.347 529.386C168.955 519.192 171.117 506.47 172.905 496.377C182.082 444.832 199.093 394.995 223.346 348.596C228.369 339.135 235.239 326.762 241.869 318.347C247.615 316.907 256.052 316.085 262.082 315.402C274.233 313.941 286.423 312.824 298.637 312.052C311.972 311.122 331.936 309.273 344.954 310.526C351.535 302.649 358.351 293.113 364.584 284.833Z"/><path fill="#684A2A" transform="scale(0.5 0.5)" d="M274.254 347.226C300.181 347.703 328.669 346.997 354.922 347.112C353.107 355.538 350.759 364.748 349.653 373.207C348.277 383.737 367.654 381.636 374.149 381.53C382.301 381.325 390.457 381.295 398.61 381.442C398.149 401.626 394.75 420.503 394.995 442.069C384.787 444.319 359.355 450.361 350.91 455.83C346.489 458.693 347.401 477.351 347.416 483.125C347.161 490.349 347.017 497.577 346.983 504.806C315.966 493.255 299.665 477.929 291.206 445.73C295.534 445.706 309.007 446.768 310.978 443.826C316.553 435.504 315.244 410.605 317.136 400.37C318.059 395.374 317.738 386.452 315.3 383.597C308.538 380.55 275.063 381.367 266.075 381.84L274.254 347.226Z"/><path fill="#684A2A" transform="scale(0.5 0.5)" d="M238.212 396.091C259.696 396.36 281.181 396.499 302.666 396.508C301.095 408.002 299.744 419.525 298.615 431.071C292.143 430.835 270.513 428.942 266.446 432.904C260.284 438.908 257.51 505.193 256.824 516.624C256.004 525.189 256.228 537.793 256.185 546.649C247.51 545.031 230.697 543.678 221.519 542.705C222.167 490.735 227.874 446.536 238.212 396.091Z"/><path fill="#684A2A" transform="scale(0.5 0.5)" d="M277.08 445.529L286.263 445.548C290.872 478.915 316.46 500.237 347.053 510.415C347.251 519.299 347.245 529.506 348.065 538.251C344.198 538.986 340.328 539.7 336.454 540.395C314.275 544.413 292.929 545.404 270.517 546.002C270.45 510.402 273.974 480.544 277.08 445.529Z"/><path fill="#A5C56E" transform="scale(0.5 0.5)" d="M677.558 230.292C709.729 226.767 744.326 244.94 761.685 271.84C765.18 276.963 772.377 284.087 778.473 278.392C789.352 268.229 769.827 250.758 763.126 243.633C770.421 242.74 777.76 242.243 785.108 242.145C822.495 241.734 863.007 252.071 890.133 278.888C912.749 299.994 920.29 329.781 933.064 356.524C942.577 376.438 952.509 384.841 952.082 409.14C951.632 434.777 940.905 453.544 922.927 471.273C888.207 505.512 838.562 520.144 791.108 524.313C781.981 525.051 764.418 524.559 754.853 524.546C751.801 526.695 747.597 530.729 748.677 534.889C751.196 544.204 764.997 542.673 772.378 542.807C793.874 543.196 814.538 540.471 835.413 535.546C828.165 554.048 820.483 566.143 804.781 578.928C767.893 606.211 713.752 598.184 674.322 580.649C667.203 577.483 659.963 573.108 652.193 572.125L651.4 572.028C644.049 577.472 634.745 585.745 627.706 591.858C610.97 606.392 596.342 618.517 577.042 629.4C577.651 620.296 577.541 614.875 576.878 605.906C596.909 572.525 604.053 545.02 609.887 506.504C616.269 510.93 628.082 520.599 636.278 519.543C641.724 518.841 644.042 510.042 640.252 506.01C638.001 503.615 635.518 502.009 632.679 500.298C606.236 483.487 586.438 460.792 578.043 430.182C586.968 429.449 595.636 426.835 603.479 422.512C653.084 395.078 658.915 298.168 598.822 281.492C602.097 276.66 605.592 271.981 609.295 267.469C628.652 243.897 647.196 233.265 677.558 230.292Z"/><path fill="#211F16" transform="scale(0.5 0.5)" d="M667.824 308.72L667.153 308.436C661.806 306.124 656.14 301.111 659.577 294.844C664.434 285.992 677.404 280.315 686.483 276.96C701.243 272.047 716.532 273.405 730.317 280.377C746.964 288.639 759.578 303.261 765.308 320.94C770.208 336.3 769.166 353.81 761.726 368.186C753.507 384.067 737.613 390.659 720.556 391.631C714.042 395.736 695.671 391.102 688.926 388.269C670.977 380.731 659.684 362.121 659.441 342.888C659.283 330.346 662.881 320.042 667.824 308.72Z"/><path fill="#FFFFFE" transform="scale(0.5 0.5)" d="M667.824 308.72C679.33 305.775 686.45 296.92 698.499 295.639C699.722 295.508 701.161 295.229 702.218 295.792C700.387 298.459 694.22 301.039 691.67 303.615C673.267 322.217 669.803 347.863 683.227 370.269L685.144 372.877C694.889 384.844 705.017 390.174 720.556 391.631C714.042 395.736 695.671 391.102 688.926 388.269C670.977 380.731 659.684 362.121 659.441 342.888C659.283 330.346 662.881 320.042 667.824 308.72Z"/><path fill="#0F0F0C" transform="scale(0.5 0.5)" d="M683.227 370.269C684.662 369.18 685.099 368.622 686.892 368.537L687.626 369.087C687.488 371.027 686.725 371.72 685.144 372.877L683.227 370.269Z"/><path fill="#FFFFFE" transform="scale(0.5 0.5)" d="M732.876 315.796C735.861 315.437 737.643 315.217 740.547 316.211C747.183 320.66 749.664 328.782 742.387 333.936C739.935 335.666 736.896 336.353 733.937 335.845C727.692 334.769 724.987 329.101 726.152 323.067C726.823 319.593 729.969 317.458 732.876 315.796Z"/><path fill="#0F0F0C" transform="scale(0.5 0.5)" d="M727.511 313.507C734.572 312.068 737.588 312.136 744.812 312.127L740.547 316.211C737.643 315.217 735.861 315.437 732.876 315.796L727.511 313.507Z"/><path fill="#0F0F0C" transform="scale(0.5 0.5)" d="M751.067 319.829L751.774 320.753C751.982 324.318 751.737 330.019 750.871 333.476L750.586 333.478C750.184 328.926 750.346 324.341 751.067 319.829Z"/><path fill="#211F16" transform="scale(0.5 0.5)" d="M676.122 409.014C679.38 409.277 683.1 410.823 685.08 413.419C720.767 460.23 773.371 429.234 822.597 435.346C829.981 436.318 837.252 438.009 844.306 440.396C866.242 447.794 889.37 460.277 910.13 443.624C914.017 440.507 922.914 431.63 928.001 431.629C941.019 431.628 935.22 445.29 929.198 451.582C916.846 463.061 902.441 470.975 885.24 470.46C861.562 469.752 840.616 454.696 817.327 453.168C782.214 450.964 746.553 464.963 711.967 454.347C695.951 449.431 678.362 438.061 669.748 423.223C665.693 416.239 669.602 411.957 676.122 409.014Z"/><path fill="#211F16" transform="scale(0.5 0.5)" d="M850.853 353.518C860.055 353.743 868.86 364.251 872.793 371.855C876.704 379.419 875.046 383.833 867.829 387.508C862.378 387.656 859.494 385.696 856.556 381.306C850.029 371.551 834.282 361.61 850.853 353.518Z"/><path fill="#211F16" transform="scale(0.5 0.5)" d="M913.835 357.504C920.931 357.387 922.835 358.018 926.557 364.509C926.565 366.857 926.411 369.203 926.095 371.53C925.055 378.919 922.517 382.984 916.762 387.336C898.33 390.042 903.344 366.739 913.835 357.504Z"/><path fill="#A5C56E" transform="scale(0.5 0.5)" d="M837.469 571.898C877.34 607.835 891.975 707.622 895.109 758.374C881.731 757.995 875.193 758.648 865.274 767.905C859.403 762.687 854.285 759.343 846.282 758.26C838.512 757.236 830.654 759.361 824.46 764.164C815.758 770.826 811.971 780.808 810.615 791.381C809.994 795.839 809.938 800.625 809.778 805.146C792.745 802.797 773.79 805.412 758.805 795.992C754.37 786.362 755.941 766.059 755.97 754.94L755.974 702.328C784.733 676.566 804.61 651.074 818.736 614.485C825.572 596.776 825.115 587.771 837.469 571.898Z"/><path fill="#A5C56E" transform="scale(0.5 0.5)" d="M170.91 634.332C173.863 636.553 188.241 654.502 192.433 659.018C212.143 680.253 229.448 694.67 253.624 710.246C232.131 768.551 266.632 770.799 262.796 798.715C260.351 800.198 259.318 800.55 256.678 801.539C252.97 776.761 245.629 753.532 215.223 757.633C208.528 759.386 205.113 762.138 199.749 766.344C181.587 748.861 157.448 755.499 148.307 778.004C145.395 785.173 144.849 791.773 144.413 799.421C139.167 798.18 134.177 796.783 129.356 794.304C117.786 788.355 122.169 771.922 123.517 761.369C129.323 715.905 147.005 673.222 170.91 634.332Z"/><path fill="#56F5DF" transform="scale(0.5 0.5)" d="M420.913 666.212C447.434 665.086 475.598 666.091 502.219 666.406C506.825 666.46 512.336 669.1 512.112 674.468C511.189 696.662 507.612 719.181 504.419 741.172C502.588 753.681 493.267 753.979 482.673 754.029L423.308 754.287C415.442 754.254 405.413 754.418 397.67 753.36C394.23 752.89 392.378 750.599 390.588 747.861C390.949 737.32 397.246 678.79 403.165 671.793C407.451 666.727 414.822 666.606 420.913 666.212Z"/><path fill="#211F16" transform="scale(0.5 0.5)" d="M426.361 686.574L459.923 686.523C463.438 686.533 478.503 686.244 481.009 687.323C490.114 691.241 487.056 700.447 479.729 704.498L448.851 704.544C441.961 704.61 435.093 705.094 428.238 704.292C422.029 703.565 418.499 699.565 420.078 693.262C420.94 689.819 423.53 688.309 426.361 686.574Z"/><path fill="#211F16" transform="scale(0.5 0.5)" d="M422.691 716.516C440.274 716.446 459.459 715.65 476.76 717.469C481.809 718 484.245 728.622 475.228 733.461C464.063 733.799 452.894 733.953 441.723 733.922C436.671 733.905 428.169 734.192 423.404 733.143C413.384 730.936 415.049 721.223 422.691 716.516Z"/><path fill="#A5C56E" transform="scale(0.5 0.5)" d="M512.82 560.414C525.42 563.003 540.086 570.619 547.957 581.03C562.125 599.773 560.217 622.848 558.216 644.904C557.466 653.172 556.937 661.598 555.864 669.755C547.384 669.574 538.75 669.581 530.257 669.506C523.053 645.935 507.294 647.34 486.459 647.972L417.376 648.495C420.921 638.465 434.823 611.408 442.052 603.595C445.952 599.379 469.154 588.42 475.982 584.109C487.992 576.527 500.729 567.903 512.82 560.414Z"/><path fill="#56F5DF" transform="scale(0.5 0.5)" d="M585.365 299.166C591.15 298.575 599.507 301.132 604.107 304.577C629.673 323.724 628.207 367.038 610.985 391.087C602.866 402.424 592.737 408.723 579.398 411.012C556.449 410.811 543.989 395.174 540.932 373.467C538.167 353.716 543.356 333.676 555.36 317.75C563.332 307.217 572.167 300.957 585.365 299.166Z"/><path fill="#211F16" transform="scale(0.5 0.5)" d="M581.058 322.603C619.659 321.089 621.223 382.593 582.78 392.066C576.615 391.894 570.905 391.085 565.644 387.717C543.753 373.704 550.139 335.642 572.476 325.375C575.5 323.985 577.859 323.357 581.058 322.603Z"/><path fill="#56F5DF" transform="scale(0.5 0.5)" d="M581.764 340.987C583.442 341.046 584.838 341.108 586.451 341.643C589.343 342.592 591.712 344.7 592.99 347.464C597.79 357.982 590.941 369.482 580.917 373.938C579.629 373.773 578.41 373.59 577.16 373.22C573.883 372.23 571.164 369.925 569.652 366.854C564.489 356.261 571.801 345.346 581.764 340.987Z"/><path fill="#DECEA3" transform="scale(0.5 0.5)" d="M653.479 592.889C655.891 593.717 659.164 595.103 661.531 596.204C683.43 606.397 705.089 611.015 728.953 614.199C720.33 638.43 705.259 660.498 688.005 679.373L680.3 677.839C652.813 670.957 622.575 654.187 601.704 635.169C608.432 629.775 615.533 624.625 622.373 619.132C632.909 610.585 643.28 601.836 653.479 592.889Z"/><path fill="#EADFBB" transform="scale(0.5 0.5)" d="M654.348 598.193C655.873 598.339 657.166 598.23 658.244 599.204L657.832 600.083C655.592 599.945 655.459 599.922 653.301 599.304L653.195 598.744L654.348 598.193Z"/><path fill="#927552" transform="scale(0.5 0.5)" d="M351.976 635.023C376.882 630.133 391.929 624.447 415.086 614.945C407.153 629.049 404.187 636.603 398.688 651.804C389.534 658.675 384.423 663.203 382.644 675.399C382.507 676.35 382.388 677.304 382.288 678.26C381.267 684.051 380.298 689.851 379.38 695.66C379.437 697.494 378.2 705.558 377.885 707.785L374.307 732.894C364.604 730.959 354.971 728.685 345.427 726.077C325.526 701.561 312.344 672.291 307.176 641.141C317.114 640.06 327.026 638.656 336.964 637.581C341.98 636.799 346.984 635.946 351.976 635.023Z"/><path fill="#927552" transform="scale(0.5 0.5)" d="M351.976 635.023C376.882 630.133 391.929 624.447 415.086 614.945C407.153 629.049 404.187 636.603 398.688 651.804C389.534 658.675 384.423 663.203 382.644 675.399C382.507 676.35 382.388 677.304 382.288 678.26C369.74 668.322 360.524 648.749 351.976 635.023Z"/><path fill="#56F5DF" transform="scale(0.5 0.5)" d="M336.964 637.581C341.98 636.799 346.984 635.946 351.976 635.023C360.524 648.749 369.74 668.322 382.288 678.26C381.267 684.051 380.298 689.851 379.38 695.66C359.384 681.072 347.019 659.465 336.964 637.581Z"/><path fill="#DECEA3" transform="scale(0.5 0.5)" d="M595.539 639.022C622.558 662.361 648.18 675.968 682.86 685.345C670.544 697.08 661.589 705.034 647.354 714.429C624.532 729.207 604.446 725.583 578.293 723.401C579.207 714.991 580.061 706.554 580.878 698.138C581.922 687.388 581.822 679.513 573.953 671.206C574.86 664.605 575.001 658.019 576.148 651.451C582.694 647.438 589.159 643.294 595.539 639.022Z"/><path fill="#EADFBB" transform="scale(0.5 0.5)" d="M649.364 676.629C650.057 676.862 651.033 677.321 651.733 677.621C652.539 679.223 652.405 678.351 651.745 680.371C650.294 680.154 649.578 680.161 648.311 679.392C648.116 677.886 648.27 678.262 649.364 676.629Z"/><path fill="#A5C56E" transform="scale(0.5 0.5)" d="M521.014 751.965C532.195 752.051 543.377 752.062 554.559 751.998C554.403 757.678 554.057 762.918 553.994 768.712C560.744 779.991 574.812 800.676 570.557 815.202C569.876 817.527 565.502 818.881 563.255 819.759C561.306 808.193 558.932 798.439 551.301 789.16C541.346 777.056 523.734 775.284 510.976 783.909C508.689 785.456 506.364 787.646 504.284 789.481C502.831 788.117 501.15 786.596 499.596 785.364C492.654 779.864 483.776 777.419 474.997 778.589C465.119 779.91 459.5 784.905 453.844 792.438C447.087 803.479 446.311 811.606 445.788 824.064C431.766 823.34 397.6 822.128 388.37 809.877C383.088 802.867 386.826 777.695 388.661 768.36C389.398 768.677 390.138 768.989 390.881 769.295C398.004 772.222 404.023 771.439 411.548 771.466L436.706 771.528L473.298 771.492C492.905 771.387 512.228 773.864 521.014 751.965Z"/><path fill="#927552" transform="scale(0.5 0.5)" d="M193.646 632.669C203.687 635.127 213.791 636.562 223.909 638.697L240.99 640.862C263.194 642.436 278.887 643.15 300.73 641.404C304.804 664.044 311.049 683.583 322.208 703.884C325.948 710.687 330.219 717.007 334.12 723.712C319.373 718.732 291.412 709.296 278.501 701.129C270.713 697.699 262.642 692.513 255.556 687.775C252.623 686.754 247.08 682.635 244.31 680.66C226.075 667.661 207.296 650.504 193.646 632.669Z"/><path fill="#56F5DF" transform="scale(0.5 0.5)" d="M193.646 632.669C203.687 635.127 213.791 636.562 223.909 638.697L240.99 640.862C249.763 656.993 258.587 671.576 272.183 684.267C274.964 686.863 282.613 694.008 282.109 697.476C280.779 699.453 280.425 699.618 278.501 701.129C270.713 697.699 262.642 692.513 255.556 687.775C252.623 686.754 247.08 682.635 244.31 680.66C226.075 667.661 207.296 650.504 193.646 632.669Z"/><path fill="#927552" transform="scale(0.5 0.5)" d="M193.646 632.669C203.687 635.127 213.791 636.562 223.909 638.697C221.834 648.157 249.389 679.441 255.556 687.775C252.623 686.754 247.08 682.635 244.31 680.66C226.075 667.661 207.296 650.504 193.646 632.669Z"/><path fill="#A5C56E" transform="scale(0.5 0.5)" d="M128.482 610.827C132.242 611.31 151.086 620.812 155.221 622.961C145.443 639.922 136.606 657.408 128.752 675.34C112.257 677.67 105.015 677.7 89.0717 674.169C75.3654 669.56 66.9369 666.152 58.8244 653.459C91.6706 642.828 103.805 634.526 128.482 610.827Z"/><path fill="#DECEA3" transform="scale(0.5 0.5)" d="M747.934 615.002C770.238 614.028 784.156 612.224 804.128 601.462C797.263 621.502 779.206 660.233 759.7 670.965C747.44 677.71 724.871 680.702 710.663 681.204C717.52 671.839 724.549 662.64 730.39 652.603L731.932 649.919C738.639 637.324 743.038 628.388 747.934 615.002Z"/><path fill="#56F5DF" transform="scale(0.5 0.5)" d="M529.667 687.233C541.05 687.16 552.434 687.273 563.814 687.572C563.416 701.196 561.945 721.91 557.453 734.507C546.177 734.58 534.901 734.575 523.626 734.491C524.818 722.772 527.009 697.683 529.667 687.233Z"/><path fill="#A5C56E" transform="scale(0.5 0.5)" d="M890.337 240.673C925.275 237.089 949.801 254.441 941.177 291.409C938.759 289.553 936.148 287.85 933.618 286.138C927.395 283.033 925.149 283.196 918.389 283.515C902.197 260.947 896.97 258.131 874.945 243.502C880.052 242.433 885.184 241.49 890.337 240.673Z"/><path fill="#927552" transform="scale(0.5 0.5)" d="M553.562 532.919C559.573 532.973 576.827 547.263 581.376 551.556C578.109 561.942 574.176 572.107 569.603 581.987L566.058 575.948C555.187 560.495 548.653 555.98 531.973 547.914L553.562 532.919Z"/><path fill="#DECEA3" transform="scale(0.5 0.5)" d="M750.857 681.175L750.807 681.713C748.471 684.218 741.557 689.189 738.526 691.377C716.273 707.441 695.975 715.329 669.433 721.047L669.371 720.629C670.361 719.11 678.965 712.361 680.996 710.737C690.019 703.524 697.398 696.036 705.202 687.55C725.05 687.585 732.262 686.089 750.857 681.175Z"/><path fill="#FFFFFE" transform="scale(0.5 0.5)" d="M477.136 796.025C496.111 795.455 498.773 810.548 501.401 825.355L488.5 825.463C480.156 825.532 471.811 825.41 463.472 825.097C463.444 812.635 464.53 801.755 477.136 796.025Z"/><path fill="#FFFFFE" transform="scale(0.5 0.5)" d="M840.194 775.49C858.661 774.991 860.824 791.355 863.487 805.569L851.275 805.927C843.346 806.027 835.415 805.976 827.488 805.774C827.656 793.157 827.48 781.902 840.194 775.49Z"/><path fill="#FFFFFE" transform="scale(0.5 0.5)" d="M174.353 773.999C191.702 773.883 194.334 790.374 195.736 804.073C192.094 804.011 188.279 803.759 184.625 803.572C177.254 803.305 168.694 802.873 161.408 801.856C161.346 790.133 163.665 780.313 174.353 773.999Z"/><path fill="#FFFFFE" transform="scale(0.5 0.5)" d="M888.897 775.572C905.573 774.907 908.858 789.008 912.429 802.049C908.228 802.477 904.03 802.939 899.836 803.434C893.807 803.587 886.751 804.277 880.553 804.583C877.231 790.639 871.502 780.502 888.897 775.572Z"/><path fill="#FFFFFE" transform="scale(0.5 0.5)" d="M220.438 774.499C236.038 774.292 237.63 791.834 239.673 803.483L229.449 803.975L212.789 804.318C212.288 797.485 210.782 789.591 209.487 782.868C213.084 777.786 214.895 776.648 220.438 774.499Z"/><path fill="#FFFFFE" transform="scale(0.5 0.5)" d="M524.917 796.62C528.301 796.343 529.24 796.421 532.556 796.767C543.157 801.721 544.536 812.583 546.323 822.903C537.087 823.817 527.911 824.027 518.701 825.088C518.187 819.056 516.17 810.631 514.864 804.615C518.34 799.902 519.736 798.723 524.917 796.62Z"/><path fill="#684A2A" transform="scale(0.5 0.5)" d="M590.423 507.962L590.975 508.731C591.21 515.249 585.414 536.222 583.508 543.645C579.424 540.478 575.152 537.507 570.936 534.513C567.385 532.482 563.885 530.363 560.438 528.16C566.257 522.737 583.416 512.159 590.423 507.962Z"/><path fill="#FFFFFE" transform="scale(0.5 0.5)" d="M935.287 309.483L935.861 309.447C946.767 308.837 951.823 319.123 944.045 327.782C940.624 328.222 937.306 327.454 934.746 325.042C932.596 322.996 931.396 320.145 931.436 317.177C931.454 313.484 932.796 311.907 935.287 309.483Z"/><path fill="#684A2A" transform="scale(0.5 0.5)" d="M849.436 546.872C851.857 549.316 858.95 566.061 858.682 568.87L857.599 568.453C853.965 563.907 849.975 560.443 845.727 556.492C846.989 553.295 848.225 550.088 849.436 546.872Z"/><path fill="#0F0F0C" transform="scale(0.5 0.5)" d="M518.859 793.194C526.149 791.86 530.31 792.289 537.659 792.555L532.556 796.767C529.24 796.421 528.301 796.343 524.917 796.62C522.672 795.208 521.208 794.393 518.859 793.194Z"/><path fill="#0F0F0C" transform="scale(0.5 0.5)" d="M953.055 353.773C954.308 355.973 953.776 364.901 953.401 367.657L952.868 367.148C951.664 364.118 952.217 356.934 953.055 353.773Z"/><path fill="#0F0F0C" transform="scale(0.5 0.5)" d="M569.267 655.384C570.261 657.382 569.502 668.086 569.348 671.127C567.338 668.584 568.78 658.579 569.267 655.384Z"/><path fill="#0F0F0C" transform="scale(0.5 0.5)" d="M172.114 768.774C174.806 768.533 181.243 768.02 183.502 769.195L183.02 769.551C180.196 769.593 173.386 769.903 171.068 769.264L172.114 768.774Z"/><path fill="#0F0F0C" transform="scale(0.5 0.5)" d="M539.729 307.484C541.298 308.222 541.932 308.334 542.81 309.826C541.856 311.919 540.154 311.202 538.185 310.828L539.729 307.484Z"/><path fill="#0F0F0C" transform="scale(0.5 0.5)" d="M730.39 652.603C728.716 651.128 728.261 650.948 728.76 648.69L729.659 648.134C731.452 648.831 730.691 648.298 731.932 649.919L730.39 652.603Z"/><path fill="#0F0F0C" transform="scale(0.5 0.5)" d="M862.432 230.189C865.351 229.678 868.484 229.59 871.247 230.74C868.027 231.124 865.307 231.738 862.432 230.189Z"/></svg>