<svg width="240" height="48" viewBox="0 0 240 48" fill="none" xmlns="http://www.w3.org/2000/svg">
  <defs>
    <linearGradient id="atlasArc" x1="16" y1="10" x2="46" y2="38" gradientUnits="userSpaceOnUse">
      <stop stop-color="#7FE3FF" stop-opacity="0.9"/>
      <stop offset="1" stop-color="#3BD38C" stop-opacity="0.65"/>
    </linearGradient>
    <radialGradient id="atlasNode" cx="0" cy="0" r="1" gradientUnits="userSpaceOnUse" gradientTransform="translate(42 18) scale(6)">
      <stop stop-color="#7FE3FF" stop-opacity="0.95"/>
      <stop offset="1" stop-color="#3BD38C" stop-opacity="0.45"/>
    </radialGradient>
    <linearGradient id="wordGradient" x1="62" y1="12" x2="240" y2="36" gradientUnits="userSpaceOnUse">
      <stop stop-color="#7FE3FF"/>
      <stop offset="1" stop-color="#3BD38C"/>
    </linearGradient>
  </defs>
  <g id="mark" stroke-linecap="round" stroke-linejoin="round">
    <path d="M18 12c6-4 12-6 18-6 6 0 12 2 18 6" stroke="rgba(255,255,255,0.3)" stroke-width="1.2"/>
    <path d="M18 36c6 4 12 6 18 6 6 0 12-2 18-6" stroke="rgba(255,255,255,0.3)" stroke-width="1.2"/>
    <path d="M18 26c4-10 12-16 18-16s14 6 18 16" stroke="url(#atlasArc)" stroke-width="2.2"/>
    <path d="M20 28c3.2-7.2 9.2-11.6 16-11.6S48.8 20.8 52 28" stroke="rgba(255,255,255,0.55)" stroke-width="1.4"/>
    <path d="M30 6v36" stroke="rgba(255,255,255,0.45)" stroke-width="1.2"/>
    <path d="M40 8v32" stroke="rgba(255,255,255,0.45)" stroke-width="1.2"/>
    <circle cx="42" cy="18" r="4.5" fill="url(#atlasNode)" stroke="rgba(255,255,255,0.75)" stroke-width="0.8"/>
    <circle cx="18" cy="26" r="1.6" fill="#7FE3FF" fill-opacity="0.8"/>
  </g>
  <g id="wordmark" fill="url(#wordGradient)" stroke="rgba(255,255,255,0.4)" stroke-width="0.4" stroke-linejoin="round">
    <path d="M62 12h18v4h-7v20h-4V16h-7z"/>
    <path d="M83 12h4v16c0 4 2 6 5 6s5-2 5-6V12h4v16c0 6-3 10-9 10s-9-4-9-10z"/>
    <path d="M102 12h11c7 0 11 4 11 9 0 4-2 7-6 8l7 11h-5l-6-10h-8v10h-4zm4 4v9h7c4 0 7-2 7-5 0-3-3-4-7-4z"/>
    <path d="M123 12h18v4h-7v20h-4V16h-7z"/>
    <path d="M144 12h4v20h14v4h-18z"/>
    <path d="M161 12h18v4h-14v6h12v4h-12v6h14v4h-18z"/>
    <path d="M182 32l8-20h4l8 20h-4.4l-1.6-4h-8l-1.6 4H182zm9-8h5.6L191 16.4z"/>
    <path d="M201 12h4l10 18V12h4v24h-4l-10-18v18h-4z"/>
    <path d="M222 12h11c7 0 13 6 13 12s-6 12-13 12h-11zm4 4v16h7c5 0 9-4 9-8s-4-8-9-8z"/>
  </g>
</svg>
